Coordinates
version=1
nRows=21
nColumns=12
inDegrees=yes

Units are S.I. units (second, meters, Newtons, ...)
Angles are in degrees

endheader
time	SC_y	SC_z	SC_x	AC_y	AC_z	AC_x	GH_y	GH_z	GH_yy	EL_x	PS_y
       0.0              -51.17          38.43          37.18          62.71         -11.25         -19.15         -98.37          45.38         -129.4           18.3           20.3
   0.01865              -51.17          38.43          37.18           62.7         -11.25         -19.15         -98.38          45.38         -129.4          18.31          20.31
    0.0373              -51.16          38.42          37.18           62.7         -11.25         -19.15         -98.39          45.38         -129.4          18.32          20.32
   0.05596              -51.16          38.41          37.19           62.7         -11.25         -19.14          -98.4          45.38         -129.4          18.34          20.34
   0.07461              -51.15          38.41          37.19           62.7         -11.25         -19.14         -98.41          45.38         -129.3          18.35          20.35
   0.09326              -51.15           38.4          37.19           62.7         -11.25         -19.14         -98.42          45.38         -129.3          18.37          20.36
    0.1119              -51.14          38.39           37.2           62.7         -11.25         -19.14         -98.43          45.38         -129.3          18.39          20.38
    0.1306              -51.13          38.38           37.2          62.69         -11.25         -19.14         -98.44          45.37         -129.2          18.41           20.4
    0.1492              -51.13          38.37           37.2          62.69         -11.25         -19.14         -98.45          45.37         -129.2          18.43          20.42
    0.1679              -51.12          38.36          37.21          62.69         -11.25         -19.14         -98.46          45.37         -129.1          18.45          20.43
    0.1865              -51.11          38.35          37.21          62.69         -11.25         -19.13         -98.47          45.37         -129.1          18.47          20.46
    0.2052               -51.1          38.34          37.22          62.68         -11.25         -19.13         -98.49          45.37         -129.1           18.5          20.48
    0.2238              -51.09          38.33          37.22          62.68         -11.26         -19.13          -98.5          45.37         -129.0          18.53           20.5
    0.2425              -51.08          38.31          37.23          62.68         -11.26         -19.13         -98.52          45.37         -128.9          18.55          20.53
    0.2611              -51.07           38.3          37.24          62.67         -11.26         -19.12         -98.54          45.37         -128.9          18.59          20.56
    0.2798              -51.06          38.28          37.24          62.67         -11.26         -19.12         -98.56          45.37         -128.8          18.62          20.59
    0.2984              -51.05          38.26          37.25          62.67         -11.26         -19.12         -98.58          45.37         -128.7          18.66          20.62
    0.3171              -51.03          38.24          37.26          62.66         -11.26         -19.11          -98.6          45.37         -128.7           18.7          20.66
    0.3357              -51.02          38.22          37.27          62.66         -11.27         -19.11         -98.63          45.37         -128.6          18.74           20.7
    0.3544               -51.0           38.2          37.28          62.65         -11.27         -19.11         -98.65          45.36         -128.5          18.79          20.74
     0.373              -50.98          38.17          37.29          62.65         -11.27          -19.1         -98.68          45.36         -128.4          18.85          20.79
